<svg id='geometry_24' width='24' height='24' viewBox='0 0 24 24' xmlns='http://www.w3.org/2000/svg'
    xmlns:xlink='http://www.w3.org/1999/xlink'>
    <rect width='24' height='24' stroke='none' fill='#000000' opacity='0' />


    <g transform="matrix(1 0 0 1 12 12)">
        <g style="">
            <g transform="matrix(1 0 0 1 0 0)">
                <path
                    style="stroke: none; stroke-width: 2; stroke-dasharray: none; stroke-linecap: round; stroke-dashoffset: 0; stroke-linejoin: round; stroke-miterlimit: 4; fill: none; fill-rule: nonzero; opacity: 1;"
                    transform=" translate(-12, -12)" d="M 0 0 L 24 0 L 24 24 L 0 24 z" stroke-linecap="round" />
            </g>
            <g transform="matrix(1 0 0 1 0 3)">
                <path
                    style="stroke: rgb(33,33,33); stroke-width: 2; stroke-dasharray: none; stroke-linecap: round; stroke-dashoffset: 0; stroke-linejoin: round; stroke-miterlimit: 4; fill: none; fill-rule: nonzero; opacity: 1;"
                    transform=" translate(-12, -15)" d="M 7 21 L 11 9 M 13 9 L 14.48 13.439 M 15.429 16.286 L 17 21"
                    stroke-linecap="round" />
            </g>
            <g transform="matrix(1 0 0 1 0 -5)">
                <circle
                    style="stroke: rgb(33,33,33); stroke-width: 2; stroke-dasharray: none; stroke-linecap: round; stroke-dashoffset: 0; stroke-linejoin: round; stroke-miterlimit: 4; fill: none; fill-rule: nonzero; opacity: 1;"
                    cx="0" cy="0" r="2" />
            </g>
            <g transform="matrix(1 0 0 1 0 2.5)">
                <path
                    style="stroke: rgb(33,33,33); stroke-width: 2; stroke-dasharray: none; stroke-linecap: round; stroke-dashoffset: 0; stroke-linejoin: round; stroke-miterlimit: 4; fill: none; fill-rule: nonzero; opacity: 1;"
                    transform=" translate(-12, -14.5)"
                    d="M 4 12 C 5.526 14.955 8.588000000000001 17 12 17 C 15.41 17 18.473 14.952 20 12"
                    stroke-linecap="round" />
            </g>
            <g transform="matrix(1 0 0 1 0 -8)">
                <path
                    style="stroke: rgb(33,33,33); stroke-width: 2; stroke-dasharray: none; stroke-linecap: round; stroke-dashoffset: 0; stroke-linejoin: round; stroke-miterlimit: 4; fill: none; fill-rule: nonzero; opacity: 1;"
                    transform=" translate(-12, -4)" d="M 12 5 L 12 3" stroke-linecap="round" />
            </g>
        </g>
    </g>
</svg>