<svg id='F1_Car_24' width='24' height='24' viewBox='0 0 24 24' xmlns='http://www.w3.org/2000/svg'
    xmlns:xlink='http://www.w3.org/1999/xlink'>
    <rect width='24' height='24' stroke='none' fill='#000000' opacity='0' />


    <g transform="matrix(1.25 0 0 1.25 12 12)">
        <path
            style="stroke: none; stroke-width: 1; stroke-dasharray: none; stroke-linecap: butt; stroke-dashoffset: 0; stroke-linejoin: miter; stroke-miterlimit: 4; fill: rgb(0,0,0); fill-rule: nonzero; opacity: 1;"
            transform=" translate(-8, -8)"
            d="M 0 4 L 0 10 L 2 10 C 2 11.098647 2.9013528 12 4 12 C 4.7331501 12 5.3705416 11.593551 5.71875 11 L 10.28125 11 C 10.629458 11.593551 11.26685 12 12 12 C 12.73315 12 13.370542 11.593551 13.71875 11 L 15.5 11 C 15.77613093810423 10.999972391047326 15.999972391047326 10.77613093810423 16 10.5 L 16 9 C 16.00020894923707 8.858676117900727 15.940607510438419 8.723862910642138 15.835938 8.6289062 C 14.690501 7.5903782 12.643014 7.2810101 10.841797 7.1152344 C 9.3172039 6.9749179 8.3787593 7.0095685 8 7.0175781 L 8 5.5 C 7.999972391047326 5.223869061895771 7.77613093810423 5.000027608952674 7.5 5 C 5.3242219 5 3.8570574 5.84397 3 6.546875 L 3 5.5 C 3 4.6774686 2.3225314 4 1.5 4 L 0 4 z M 1 5 L 1.5 5 C 1.7814686 5 2 5.2185314 2 5.5 L 2 9 L 1 9 L 1 5 z M 7 6.0761719 L 7 7.5 C 6.999947861640057 7.635356010383328 7.054770097254864 7.76495117812046 7.151942237573959 7.859178708126855 C 7.249114377893054 7.95340623813325 7.380334652183534 8.004215928486094 7.515625 8 C 7.515625 8 9.0219207 7.952104 10.751953 8.1113281 C 10.900624 8.1250111 11.050997 8.1519438 11.201172 8.1699219 C 10.496974 8.4805454 10 9.1853025 10 10 L 6 10 C 6 8.9013528 5.0986472 8 4 8 C 3.6345029 8 3.2959028 8.1076578 3 8.28125 L 3 7.9277344 C 3.2022416 7.6669624 4.388409 6.2703364 7 6.0761719 z M 13.429688 8.609375 C 14.07684 8.798907 14.645687 9.0251877 15 9.296875 L 15 10 L 14 10 C 14 9.4605944 13.780911 8.9703374 13.429688 8.609375 z M 4 9 C 4.5582071 9 5 9.4417929 5 10 C 5 10.558207 4.5582071 11 4 11 C 3.4417929 11 3 10.558207 3 10 C 3 9.4417929 3.4417929 9 4 9 z M 12 9 C 12.558207 9 13 9.4417929 13 10 C 13 10.558207 12.558207 11 12 11 C 11.441793 11 11 10.558207 11 10 C 11 9.4417929 11.441793 9 12 9 z"
            stroke-linecap="round" />
    </g>
</svg>