<svg id='Eiffel_Tower_24' width='24' height='24' viewBox='0 0 24 24' xmlns='http://www.w3.org/2000/svg'
    xmlns:xlink='http://www.w3.org/1999/xlink'>
    <rect width='24' height='24' stroke='none' fill='#000000' opacity='0' />


    <g transform="matrix(0.77 0 0 0.77 12 12)">
        <path
            style="stroke: none; stroke-width: 1; stroke-dasharray: none; stroke-linecap: butt; stroke-dashoffset: 0; stroke-linejoin: miter; stroke-miterlimit: 4; fill: rgb(0,0,0); fill-rule: nonzero; opacity: 1;"
            transform=" translate(-15, -13.99)"
            d="M 14.984375 0.98632812 C 14.432858850921447 0.9949491932269869 13.992447346692762 1.4484681849375836 14 2 L 14 3 L 13.816406 3 C 13.366406 3 13 3.3664063 13 3.8164062 L 13 5.1835938 C 13 5.6002302 13.318194 5.9316564 13.722656 5.9804688 C 13.271774 9.0279218 12.665203 11.692663 11.972656 14.001953 C 11.544426209299077 14.00896748877725 11.168196894909403 14.287878436836754 11.037008458370215 14.695578756698005 C 10.905820021831026 15.103279076559256 11.04879660105893 15.549258349335314 11.392578 15.804688 C 10.992685 16.965871 10.579707 18.039009 10.158203 19 L 10 19 C 9.581062375883997 18.99548139821714 9.203711839505225 19.252568753792183 9.054599561724721 19.64409739805355 C 8.905487283944218 20.035626042314917 9.016222347387393 20.478599045359292 9.3320312 20.753906 C 7.1027104 25.179857 5 27 5 27 L 10 27 C 10.782 24.797 12.529 23 15 23 C 17.471 23 19.218 24.797 20 27 L 25 27 C 25 27 22.89729 25.179857 20.667969 20.753906 C 20.983777881940554 20.478599021639887 21.09451293552049 20.035625967431272 20.94540060533348 19.644097302794165 C 20.796288275146463 19.252568638157054 20.418937660892293 18.995481312976956 20 19 L 19.841797 19 C 19.420293 18.039009 19.007315 16.965871 18.607422 15.804688 C 18.952881462698457 15.54973172127046 19.097059125125742 15.102722596695488 18.965672887087862 14.693965210357605 C 18.834286649049982 14.285207824019725 18.45665725466653 14.005922313665414 18.027344 14 C 17.335015 11.69112 16.728111 9.0271429 16.277344 5.9804688 C 16.681288 5.9319079 17 5.6013533 17 5.1835938 L 17 3.8164062 C 17 3.3664062 16.634594 3 16.183594 3 L 16 3 L 16 2 C 16.003701428278323 1.7296996878410038 15.897823277571275 1.4694133980471826 15.706490289327581 1.278448356915857 C 15.515157301083889 1.0874833157845312 15.254667686426398 0.9821063918050874 14.984375 0.9863281199999998 z M 15 11 L 15.666016 14 L 14.333984 14 L 15 11 z M 13.888672 16 L 16.111328 16 L 16.777344 19 L 13.222656 19 L 13.888672 16 z"
            stroke-linecap="round" />
    </g>
</svg>