<svg id='Desktop_Computer_Pc_24' width='24' height='24' viewBox='0 0 24 24' xmlns='http://www.w3.org/2000/svg'
    xmlns:xlink='http://www.w3.org/1999/xlink'>
    <rect width='24' height='24' stroke='none' fill='#000000' opacity='0' />


    <g transform="matrix(0.83 0 0 0.83 12 12)">
        <g style="">
            <g transform="matrix(1 0 0 1 8.5 1.5)">
                <path
                    style="stroke: none; stroke-width: 1; stroke-dasharray: none; stroke-linecap: butt; stroke-dashoffset: 0; stroke-linejoin: miter; stroke-miterlimit: 4; fill: rgb(0,0,0); fill-rule: nonzero; opacity: 1;"
                    transform=" translate(-20.5, -13.5)"
                    d="M 24 7.25 C 24 6.697715250169207 23.552284749830793 6.25 23 6.25 L 20.25 6.25 C 20.111928812542303 6.25 20 6.361928812542302 20 6.5 L 20 16.75 C 20 17.854569499661586 19.104569499661586 18.75 18 18.75 L 17.25 18.75 C 17.111928812542303 18.75 17 18.861928812542303 17 19 L 17 19.75 C 17 20.302284749830793 17.447715250169207 20.75 18 20.75 L 23 20.75 C 23.552284749830793 20.75 24 20.302284749830793 24 19.75 Z"
                    stroke-linecap="round" />
            </g>
            <g transform="matrix(1 0 0 1 -2.5 0)">
                <path
                    style="stroke: none; stroke-width: 1; stroke-dasharray: none; stroke-linecap: butt; stroke-dashoffset: 0; stroke-linejoin: miter; stroke-miterlimit: 4; fill: rgb(0,0,0); fill-rule: nonzero; opacity: 1;"
                    transform=" translate(-9.5, -12)"
                    d="M 12 18.75 L 10.75 18.75 C 10.6119288125423 18.75 10.5 18.638071187457697 10.5 18.5 L 10.5 18 C 10.5 17.861928812542303 10.6119288125423 17.75 10.75 17.75 L 17 17.75 C 18.104569499661586 17.75 19 16.854569499661586 19 15.75 L 19 5.25 C 19 4.1454305003384135 18.104569499661586 3.25 17 3.25 L 2 3.25 C 0.8954305003384131 3.25 0 4.1454305003384135 0 5.25 L 0 15.75 C 0 16.854569499661586 0.8954305003384131 17.75 2 17.75 L 8.25 17.75 C 8.3880711874577 17.75 8.5 17.861928812542303 8.5 18 L 8.5 18.5 C 8.5 18.638071187457697 8.3880711874577 18.75 8.25 18.75 L 7 18.75 C 6.447715250169207 18.75 6 19.197715250169207 6 19.75 C 6 20.302284749830793 6.447715250169207 20.75 7 20.75 L 12 20.75 C 12.552284749830793 20.75 13 20.302284749830793 13 19.75 C 13 19.197715250169207 12.552284749830793 18.75 12 18.75 Z M 2 15.25 L 2 5.75 C 2 5.473857625084603 2.2238576250846034 5.25 2.5 5.25 L 16.5 5.25 C 16.7761423749154 5.25 17 5.473857625084603 17 5.75 L 17 15.25 C 17 15.526142374915397 16.7761423749154 15.75 16.5 15.75 L 2.5 15.75 C 2.2238576250846034 15.75 2 15.526142374915397 2 15.25 Z"
                    stroke-linecap="round" />
            </g>
        </g>
    </g>
</svg>