<svg id='Transistor_24' width='24' height='24' viewBox='0 0 24 24' xmlns='http://www.w3.org/2000/svg'
    xmlns:xlink='http://www.w3.org/1999/xlink'>
    <rect width='24' height='24' stroke='none' fill='#000000' opacity='0' />


    <g transform="matrix(1 0 0 1 12 12)">
        <path
            style="stroke: none; stroke-width: 1; stroke-dasharray: none; stroke-linecap: butt; stroke-dashoffset: 0; stroke-linejoin: miter; stroke-miterlimit: 4; fill: rgb(0,0,0); fill-rule: nonzero; opacity: 1;"
            transform=" translate(-12, -12)"
            d="M 7.59375 2 L 7.28125 2.28125 L 5.28125 4.28125 L 5 4.59375 L 5 12 C 5 12.03125 5 12.0625 5 12.09375 L 5 13 C 5 14.101563 5.898438 15 7 15 L 17 15 C 18.101563 15 19 14.101563 19 13 L 19 12.15625 C 19.003906 12.105469 19.003906 12.050781 19 12 L 19 4.59375 L 18.71875 4.28125 L 16.71875 2.28125 L 16.40625 2 Z M 8.4375 4 L 15.5625 4 L 17 5.4375 L 17 8 L 7 8 L 7 5.4375 Z M 12 5 C 11.449219 5 11 5.449219 11 6 C 11 6.550781 11.449219 7 12 7 C 12.550781 7 13 6.550781 13 6 C 13 5.449219 12.550781 5 12 5 Z M 7 16 L 7 22 L 9 22 L 9 16 Z M 11 16 L 11 22 L 13 22 L 13 16 Z M 15 16 L 15 22 L 17 22 L 17 16 Z"
            stroke-linecap="round" />
    </g>
</svg>