<?xml version="1.0" encoding="UTF-8"?>
<svg version="1.1" xmlns="http://www.w3.org/2000/svg" width="1024" height="1024">
<path d="M0 0 C1.35444466 0.00212242 1.35444466 0.00212242 2.73625183 0.00428772 C5.60935838 0.00986802 8.48238591 0.02241691 11.35546875 0.03515625 C13.30794158 0.0401738 15.26041564 0.04473626 17.21289062 0.04882812 C21.9896136 0.059831 26.76627779 0.07708207 31.54296875 0.09765625 C31.5453571 1.22372599 31.54774546 2.34979572 31.55020618 3.50998878 C31.60907483 30.94563751 31.68500316 58.38119894 31.77868366 85.81675148 C31.82359493 99.08453195 31.86302039 112.35228587 31.8894043 125.62011719 C31.91242215 137.18817332 31.94586253 148.75614507 31.99167031 160.32413423 C32.01555135 166.44581427 32.03431369 172.56741099 32.04058266 178.68913651 C32.04665663 184.4593316 32.06673992 190.22931367 32.09724426 195.9994297 C32.10598749 198.10920924 32.10975484 200.21901665 32.10797691 202.32881355 C32.09892075 218.04399051 33.03031727 231.91187595 40.54296875 246.09765625 C40.96191406 246.91621094 41.38085938 247.73476563 41.8125 248.578125 C51.23661965 265.6610393 68.15574523 278.90703642 86.83915234 284.45529461 C98.10218891 287.13112076 109.72537586 287.38979962 121.2409668 287.34057617 C122.7367969 287.34165334 124.23262659 287.34359841 125.72845459 287.34632874 C129.74903771 287.35112321 133.76950751 287.34357947 137.79007697 287.33337569 C142.06242687 287.32445471 146.33477464 287.32635564 150.60713196 287.32673645 C157.80817497 287.32580279 165.00917563 287.31717701 172.21020508 287.3034668 C179.50513552 287.28962436 186.80002697 287.28245251 194.0949707 287.28295898 C215.40808453 287.28401213 236.72050636 287.24896293 258.03332961 287.13195288 C262.75937254 287.10607612 267.48539845 287.08661052 272.21148682 287.07037354 C277.58687392 287.04918904 282.96133915 287.00325288 288.33628273 286.93123817 C290.14548977 286.90995842 291.95480906 286.8963235 293.76413536 286.8917141 C315.58275145 286.81908256 334.03755531 279.60055746 349.6328125 264.171875 C363.59329917 249.75010889 370.67804504 231.91790441 370.70118713 211.9861145 C370.7085941 210.62472707 370.7085941 210.62472707 370.7161507 209.23583686 C370.73148591 206.20035788 370.73987555 203.16489999 370.74829102 200.12939453 C370.75787266 197.95119543 370.76788291 195.77299817 370.77828979 193.59480286 C370.80531382 187.68420147 370.82633696 181.77359211 370.84629178 175.8629632 C370.86816674 169.6849844 370.89554805 163.50703009 370.92234802 157.32907104 C370.97225446 145.63139026 371.01720091 133.93369587 371.06037039 122.2359885 C371.10976025 108.91806939 371.1646719 95.60017575 371.22004998 82.28228021 C371.33383859 54.88742848 371.44068444 27.49255318 371.54296875 0.09765625 C377.21717511 0.02305102 382.89109083 -0.03115983 388.56567383 -0.06713867 C390.49280781 -0.08215027 392.41990807 -0.10256591 394.34692383 -0.12866211 C397.12980514 -0.16538318 399.91223163 -0.18214667 402.6953125 -0.1953125 C403.54568588 -0.21079636 404.39605927 -0.22628021 405.27220154 -0.24223328 C418.60967695 -0.24591809 428.28741434 5.91961904 437.54296875 15.09765625 C445.89799102 23.83705 447.1425119 36.45631553 447.05090332 48.00061035 C447.06026326 49.84723699 447.06026326 49.84723699 447.0698123 51.73116922 C447.08289911 55.10889385 447.07833664 58.48571414 447.06586742 61.86338162 C447.05675031 65.52127086 447.07081938 69.17908578 447.08178711 72.83695984 C447.09950644 79.98711283 447.0957619 87.13709719 447.08413655 94.2872566 C447.07507643 100.10206628 447.07388933 105.91682895 447.07823181 111.73164368 C447.07884474 112.56151264 447.07945768 113.39138161 447.08008918 114.24639812 C447.08136818 115.93264069 447.08266503 117.61888324 447.08397955 119.30512577 C447.09536605 135.0902948 447.08230201 150.87537068 447.06077808 166.66052443 C447.04290885 180.18372306 447.0460135 193.70678431 447.06445312 207.22998047 C447.08589402 222.96144351 447.09426759 238.69282506 447.08200407 254.42430067 C447.08072997 256.10409004 447.07947249 257.78387943 447.07823181 259.46366882 C447.07730616 260.70316846 447.07730616 260.70316846 447.07636181 261.9677085 C447.07291855 267.77067273 447.07871507 273.57358496 447.08815002 279.37654114 C447.09940725 286.4553989 447.09625216 293.53407942 447.07502705 300.61291707 C447.06456639 304.21969163 447.06030867 307.82617144 447.07362366 311.43294334 C447.08787807 315.35369369 447.07077623 319.27396894 447.05090332 323.19470215 C447.06428765 324.88136356 447.06428765 324.88136356 447.07794237 326.60209894 C446.95237617 339.43883493 443.3665127 350.88787396 434.47265625 360.28515625 C423.81175371 370.38886876 411.67564947 372.42897053 397.40185547 372.32470703 C396.32022188 372.3249481 395.23858829 372.32518917 394.12417793 372.32543755 C390.65691747 372.32395644 387.18987775 372.30877911 383.72265625 372.29296875 C381.56844181 372.29002459 379.41422593 372.28798645 377.26000977 372.28686523 C369.3126408 372.27642117 361.36530256 372.24849863 353.41796875 372.22265625 C335.63921875 372.18140625 317.86046875 372.14015625 299.54296875 372.09765625 C299.54296875 410.04765625 299.54296875 447.99765625 299.54296875 487.09765625 C293.60296875 487.09765625 287.66296875 487.09765625 281.54296875 487.09765625 C281.91146942 488.37422089 282.27997009 489.65078552 282.65963745 490.96603394 C286.27238639 503.52126628 289.74166573 516.10858627 293.11328125 528.73046875 C293.63344176 530.67251372 294.15375039 532.61451901 294.67419434 534.55648804 C296.05601246 539.7144139 297.43563413 544.87292468 298.8147049 550.03158569 C299.96185995 554.3217624 301.11022228 558.61161558 302.25858116 562.90147018 C305.46263831 574.87081975 308.66340153 586.84104807 311.86279297 598.81164551 C313.22069116 603.89221881 314.57909864 608.97265574 315.93772697 614.05303383 C318.79829463 624.74968763 321.65662487 635.44693681 324.51290131 646.14473724 C325.16816197 648.59837978 325.82381154 651.05191811 326.47955322 653.50543213 C327.49553563 657.3071754 328.51026286 661.10925137 329.52394104 664.91160965 C329.89233872 666.29274337 330.26115544 667.67376539 330.63041687 669.05466843 C331.12797875 670.91569373 331.62385718 672.77716888 332.11962891 674.63867188 C332.39650543 675.67624634 332.67338196 676.7138208 332.95864868 677.78283691 C333.54296875 680.09765625 333.54296875 680.09765625 333.54296875 681.09765625 C312.75296875 681.09765625 291.96296875 681.09765625 270.54296875 681.09765625 C267.61851226 671.73939547 264.73159299 662.47812729 262.26077271 653.00558472 C262.07607548 652.2994894 261.89137825 651.59339409 261.70108414 650.86590195 C261.50968731 650.13413868 261.31829048 649.40237541 261.12109375 648.6484375 C260.70340552 647.06347002 260.28533272 645.47860384 259.86691284 643.89382935 C258.97223332 640.50302678 258.0795511 637.11170792 257.1885376 633.71994019 C254.77637347 624.53884912 252.35117571 615.36119692 249.92578125 606.18359375 C249.67234325 605.22416555 249.41890526 604.26473736 249.15778732 603.27623558 C244.99189436 587.51013486 240.77658414 571.75765656 236.53515625 556.01171875 C236.10240891 554.40480321 236.10240891 554.40480321 235.66091919 552.76542473 C232.82423248 542.23320692 229.98378545 531.70201116 227.13770103 521.17232895 C226.08407851 517.27242902 225.03235886 513.3720176 223.9810524 509.47149277 C223.48935425 507.64923766 222.99671986 505.8272349 222.50310898 504.00549698 C221.8294293 501.51915372 221.15874809 499.03202041 220.48876953 496.54467773 C220.28951496 495.8124616 220.09026039 495.08024546 219.8849678 494.32584095 C218.54296875 489.32555418 218.54296875 489.32555418 218.54296875 487.09765625 C207.32296875 487.09765625 196.10296875 487.09765625 184.54296875 487.09765625 C183.99833984 489.46638916 183.45371094 491.83512207 182.89257812 494.27563477 C180.4672158 504.659945 177.71407517 514.95195063 174.94921875 525.25 C174.40343344 527.29024946 173.85785581 529.33055449 173.31246948 531.37091064 C171.85912887 536.80517021 170.402497 542.23854208 168.94499969 547.67168808 C167.73625978 552.17880422 166.52923613 556.68637931 165.32214165 561.19393635 C161.40236401 575.8302864 157.47446079 590.46444893 153.54296875 605.09765625 C153.26931992 606.11628754 152.99567108 607.13491882 152.71372986 608.18441772 C149.3371071 620.75281285 145.95503755 633.3197269 142.56533813 645.88460159 C141.91812604 648.28457299 141.271606 650.68472991 140.62524414 653.08493042 C139.6247816 656.79935417 138.62211212 660.51317474 137.61755753 664.22649384 C137.25457807 665.56943316 136.89230362 666.91256328 136.53078842 668.25589752 C136.0438579 670.06461415 135.55399966 671.87254187 135.06396484 673.68041992 C134.79232513 674.68594406 134.52068542 675.6914682 134.24081421 676.72746277 C133.54296875 679.09765625 133.54296875 679.09765625 132.54296875 681.09765625 C111.75296875 681.09765625 90.96296875 681.09765625 69.54296875 681.09765625 C75.28985593 658.64190902 81.12787097 636.21652627 87.11809921 613.82477951 C87.95737076 610.68677942 88.79559103 607.54849882 89.63387012 604.4102335 C91.88289511 595.99089717 94.13459748 587.572279 96.38746357 579.15396976 C98.12412609 572.66417392 99.85920633 566.1739562 101.59375 559.68359375 C104.14280954 550.14584517 106.69460763 540.60883222 109.24819946 531.07229614 C110.23537486 527.38541417 111.22162855 523.69828749 112.2071228 520.01095581 C113.36549125 515.67715663 114.52597376 511.34392911 115.68811035 507.01113892 C116.11673231 505.4117216 116.54461061 503.81210479 116.97171021 502.21228027 C117.5549037 500.02826624 118.1407487 497.84498083 118.72729492 495.66186523 C119.05557785 494.43580063 119.38386078 493.20973602 119.72209167 491.94651794 C120.54296875 489.09765625 120.54296875 489.09765625 121.54296875 487.09765625 C115.60296875 487.09765625 109.66296875 487.09765625 103.54296875 487.09765625 C103.54296875 449.14765625 103.54296875 411.19765625 103.54296875 372.09765625 C68.25640017 372.21621514 68.25640017 372.21621514 32.9699707 372.36791992 C26.10974121 372.38146973 26.10974121 372.38146973 22.88737488 372.38398743 C20.66042782 372.38856216 18.43348769 372.39904621 16.20658875 372.41438293 C-18.22617682 372.63944948 -18.22617682 372.63944948 -32.20703125 359.91015625 C-42.05178686 349.36719102 -43.76217416 337.51091346 -43.72445679 323.67572021 C-43.7289879 322.44805349 -43.73351901 321.22038676 -43.73818743 319.95551801 C-43.74861589 316.5690056 -43.75016448 313.18270651 -43.74779868 309.79619336 C-43.74738891 306.13552171 -43.75844485 302.47488121 -43.76791382 298.81422424 C-43.7844901 291.65020333 -43.79002183 284.48621534 -43.79113857 277.32217684 C-43.79209063 271.49583908 -43.79620878 265.66951213 -43.80253983 259.8431778 C-43.82014287 243.30560321 -43.82938014 226.76805453 -43.82787888 210.23047051 C-43.82779897 209.33988887 -43.82771905 208.44930724 -43.82763672 207.53173828 C-43.82755496 206.64006278 -43.8274732 205.74838729 -43.82738896 204.82969132 C-43.82657628 190.38308113 -43.84571188 175.93657524 -43.87391345 161.48999521 C-43.90267671 146.63788711 -43.91645186 131.78582982 -43.9147259 116.93369317 C-43.9140632 108.6027614 -43.9195029 100.27193901 -43.941082 91.94103241 C-43.95933914 84.84745582 -43.96360407 77.75403819 -43.95006315 70.66044822 C-43.94355631 67.04558821 -43.94333279 63.43103275 -43.96076965 59.81620216 C-43.97952935 55.88650472 -43.96688633 51.95724628 -43.95150757 48.02752686 C-43.96179469 46.90035743 -43.97208182 45.77318801 -43.98268068 44.61186194 C-43.8841469 33.1614301 -41.31370562 22.67043375 -33.45703125 14.09765625 C-32.65265625 13.21078125 -31.84828125 12.32390625 -31.01953125 11.41015625 C-21.5373297 2.85304753 -12.68729885 -0.07517954 0 0 Z " fill="#000000" transform="translate(310.45703125,257.90234375)"/>
<path d="M0 0 C0.83055887 -0.00453111 1.66111773 -0.00906223 2.51684505 -0.01373065 C5.28633723 -0.0263413 8.05563191 -0.02475642 10.82514954 -0.02310181 C12.81654105 -0.02908922 14.80793025 -0.03589525 16.79931641 -0.04345703 C22.20037426 -0.06110455 27.60136871 -0.06581195 33.00245261 -0.0670886 C36.38042402 -0.0685117 39.75837939 -0.07278434 43.13634682 -0.07808304 C54.93138779 -0.09658061 66.7263836 -0.10475417 78.5214386 -0.10317993 C89.49874761 -0.10197926 100.47585976 -0.12306777 111.45311898 -0.15466726 C120.89117087 -0.1808632 130.3291586 -0.1915458 139.76724654 -0.19026911 C145.39809041 -0.18976037 151.02875937 -0.19539483 156.65956688 -0.21662521 C161.95955604 -0.23606292 167.25920446 -0.2360942 172.55920601 -0.22159195 C174.4973081 -0.21950948 176.43543183 -0.22417101 178.37349701 -0.23631287 C190.97888001 -0.31012863 202.66526106 0.04454746 213.24433899 7.89242554 C214.06418274 8.48281616 214.88402649 9.07320679 215.72871399 9.68148804 C216.31137024 10.20484741 216.89402649 10.72820679 217.49433899 11.26742554 C217.49433899 11.92742554 217.49433899 12.58742554 217.49433899 13.26742554 C218.15433899 13.26742554 218.81433899 13.26742554 219.49433899 13.26742554 C226.70477458 21.79634077 230.6127673 32.26661246 230.62576675 43.36207676 C230.6296079 44.59427025 230.63344904 45.82646375 230.63740659 47.09599644 C230.6366264 48.46039559 230.63574762 49.82479469 230.63478088 51.18919373 C230.63736537 52.64101202 230.64037876 54.0928296 230.64378428 55.5446462 C230.65184799 59.53494122 230.65364351 63.52521825 230.65438175 67.51552045 C230.65623344 71.81904735 230.66378143 76.12256492 230.67051697 80.42608643 C230.68409702 89.83745167 230.69012469 99.24881264 230.69452763 108.66018605 C230.69729098 114.53839092 230.70152854 120.41659414 230.7060318 126.2947979 C230.71822475 142.57412774 230.72852355 158.85345626 230.73190689 175.13279057 C230.73212646 176.17466299 230.73234602 177.21653541 230.73257224 178.28997972 C230.73279052 179.33433035 230.7330088 180.37868098 230.73323369 181.4546786 C230.73367715 183.57089047 230.73412372 185.68710234 230.73457336 187.80331421 C230.73479479 188.85302599 230.73501622 189.90273777 230.73524436 190.984259 C230.73919075 207.98605201 230.7566398 224.98780211 230.77993289 241.98957855 C230.80366194 259.45074811 230.81610947 276.91189616 230.81727481 294.3730821 C230.81819077 304.17452197 230.82392313 313.97590595 230.84209442 323.7773304 C230.85751647 332.12521123 230.86260351 340.47301892 230.85435632 348.8209113 C230.85045707 353.0775729 230.85134379 357.3340873 230.86541367 361.59073067 C230.87819637 365.4937868 230.87691702 369.39658578 230.86482295 373.29964178 C230.86287347 374.70548635 230.86590949 376.11134941 230.87466732 377.51716805 C230.96101359 392.32486748 228.56462704 404.34442781 218.42402649 415.55648804 C209.4150787 424.1779542 199.46802887 427.42161269 187.21572876 427.40786743 C185.97033704 427.41232412 185.97033704 427.41232412 184.69978589 427.41687083 C181.91946066 427.42553798 179.1391786 427.42706441 176.35884094 427.42855835 C174.36450102 427.43318795 172.37016198 427.43821281 170.37582397 427.44360352 C164.95826635 427.45671641 159.54072112 427.4631704 154.12315011 427.46761417 C150.73683458 427.47054689 147.35052243 427.47465209 143.9642086 427.47911835 C133.36450825 427.49279079 122.76481563 427.5024585 112.16510707 427.50632024 C99.93820889 427.51079952 87.71142258 427.5283425 75.4845584 427.55732083 C66.02790165 427.57895391 56.57127634 427.5890254 47.11459512 427.59036136 C41.46928015 427.59140828 35.82407038 427.59729212 30.17878151 427.61518097 C24.86574632 427.63168954 19.5528951 427.63380357 14.23984337 427.62504196 C12.29445273 427.62427306 10.34905209 427.6285948 8.40368652 427.63850021 C-6.46356665 427.70973564 -19.20197229 426.77272416 -30.73612976 416.22836304 C-41.94352644 404.327075 -43.81163252 391.62924312 -43.77308655 375.83340454 C-43.77682763 374.37472034 -43.78143097 372.91603813 -43.78681719 371.45735908 C-43.79900595 367.46661087 -43.79879162 363.47594675 -43.79642844 359.48518419 C-43.79601923 355.17420198 -43.80706934 350.86324634 -43.81654358 346.55227661 C-43.83313176 338.11289267 -43.83865213 329.67353668 -43.83976834 321.2341378 C-43.84071982 314.37185474 -43.84483511 307.50958087 -43.85116959 300.64730072 C-43.86877581 281.17683795 -43.87800939 261.7063972 -43.87650864 242.23592642 C-43.87642873 241.18703402 -43.87634881 240.13814162 -43.87626648 239.0574646 C-43.87618472 238.00728652 -43.87610296 236.95710844 -43.87601872 235.87510678 C-43.87520593 218.8580591 -43.89434345 201.84109995 -43.92254321 184.82407787 C-43.95129285 167.33678197 -43.96508237 149.84952921 -43.96335566 132.36220908 C-43.96269249 122.5501632 -43.96815273 112.73821015 -43.98971176 102.92618561 C-44.00795089 94.57182207 -44.01224845 86.21759344 -43.99869291 77.86321858 C-43.99217713 73.60434066 -43.99199557 69.34572137 -44.00939941 65.08686829 C-44.02519698 61.18076346 -44.02219907 57.27512088 -44.00483115 53.36902687 C-44.00177588 51.96328444 -44.00533755 50.55750693 -44.0165513 49.15180591 C-44.12299243 34.85065161 -41.22078909 23.04625377 -31.50566101 12.26742554 C-22.61186119 3.99412337 -12.03464744 -0.04871252 0 0 Z M34.80683899 152.07992554 C34.27695374 152.56034302 33.74706848 153.0407605 33.2011261 153.53573608 C31.92182749 154.73463987 30.70207276 155.99645963 29.49433899 157.26742554 C29.49433899 157.92742554 29.49433899 158.58742554 29.49433899 159.26742554 C28.83433899 159.26742554 28.17433899 159.26742554 27.49433899 159.26742554 C25.97053472 161.30018043 24.59461322 163.30992807 23.24433899 165.45492554 C22.84319885 166.09204468 22.44205872 166.72916382 22.02876282 167.3855896 C9.39167116 187.8420242 5.2697277 209.93453493 10.52949524 233.42758179 C14.71350304 250.07891646 22.38320291 263.15628946 34.49433899 275.26742554 C35.19043274 275.96351929 35.88652649 276.65961304 36.60371399 277.37680054 C50.96350504 290.89806365 68.99067044 297.70812209 88.49433899 299.26742554 C89.70863586 299.37377319 89.70863586 299.37377319 90.94746399 299.48226929 C112.39722368 300.39424887 134.54647017 291.89404739 150.30683899 277.51742554 C166.77153152 261.85492846 177.39679927 241.09971304 178.66230774 218.23226929 C178.81894641 193.95327531 171.23390563 172.76857241 155.03340149 154.76742554 C152.85069377 152.03355745 152.85069377 152.03355745 150.49433899 152.26742554 C150.49433899 151.60742554 150.49433899 150.94742554 150.49433899 150.26742554 C132.58283636 134.10153545 108.69496376 128.0700492 85.14228821 129.07211304 C66.18522392 130.47038442 48.73447702 139.45008546 34.80683899 152.07992554 Z " fill="#000000" transform="translate(418.5056610107422,84.73257446289063)"/>
</svg>
